<svg width="105" height="17" viewBox="0 0 105 17" fill="none" xmlns="http://www.w3.org/2000/svg">
<path d="M12.8691 15.9521H9.5498V9.17383H3.33008V15.9521H0V0.24707H3.33008V6.40234H9.5498V0.24707H12.8691V15.9521ZM32.4186 8.07812C32.4186 9.28841 32.2682 10.3913 31.9675 11.3867C31.6667 12.375 31.2083 13.2272 30.5925 13.9434C29.9837 14.6595 29.2103 15.2109 28.2721 15.5977C27.334 15.9772 26.224 16.167 24.9421 16.167C23.6602 16.167 22.5501 15.9772 21.612 15.5977C20.6738 15.2109 19.8968 14.6595 19.2809 13.9434C18.6722 13.2272 18.2175 12.3714 17.9167 11.376C17.6159 10.3805 17.4655 9.27409 17.4655 8.05664C17.4655 6.43099 17.7305 5.0166 18.2604 3.81348C18.7975 2.60319 19.6211 1.66504 20.7311 0.999023C21.8412 0.333008 23.252 0 24.9636 0C26.668 0 28.068 0.333008 29.1637 0.999023C30.2666 1.66504 31.083 2.60319 31.613 3.81348C32.1501 5.02376 32.4186 6.44531 32.4186 8.07812ZM20.9567 8.07812C20.9567 9.17383 21.0928 10.1191 21.3649 10.9141C21.6442 11.7018 22.0775 12.3105 22.6647 12.7402C23.252 13.1628 24.0111 13.374 24.9421 13.374C25.8874 13.374 26.6537 13.1628 27.2409 12.7402C27.8281 12.3105 28.2542 11.7018 28.5192 10.9141C28.7914 10.1191 28.9274 9.17383 28.9274 8.07812C28.9274 6.43099 28.6195 5.13477 28.0036 4.18945C27.3877 3.24414 26.3744 2.77148 24.9636 2.77148C24.0254 2.77148 23.2591 2.98633 22.6647 3.41602C22.0775 3.83854 21.6442 4.44727 21.3649 5.24219C21.0928 6.02995 20.9567 6.97526 20.9567 8.07812ZM43.6429 15.9521L39.8617 3.63086H39.765C39.7793 3.92448 39.8008 4.36849 39.8295 4.96289C39.8653 5.55013 39.8975 6.17676 39.9261 6.84277C39.9548 7.50879 39.9691 8.11035 39.9691 8.64746V15.9521H36.9935V0.24707H41.5267L45.2435 12.2568H45.308L49.2504 0.24707H53.7836V15.9521H50.6791V8.51855C50.6791 8.02441 50.6862 7.45508 50.7005 6.81055C50.722 6.16602 50.7471 5.55371 50.7757 4.97363C50.8044 4.38639 50.8259 3.94596 50.8402 3.65234H50.7435L46.6937 15.9521H43.6429ZM68.1123 15.9521H59.0674V0.24707H68.1123V2.97559H62.3975V6.42383H67.7149V9.15234H62.3975V13.2021H68.1123V15.9521ZM72.7195 15.9521V0.24707H76.0495V13.2021H82.4196V15.9521H72.7195ZM91.3666 6.71387L94.643 0.24707H98.2309L93.0209 9.83984V15.9521H89.7123V9.94727L84.5023 0.24707H88.1117L91.3666 6.71387ZM100.808 14.416C100.808 13.7428 100.99 13.2702 101.356 12.998C101.728 12.7259 102.176 12.5898 102.698 12.5898C103.207 12.5898 103.644 12.7259 104.009 12.998C104.381 13.2702 104.567 13.7428 104.567 14.416C104.567 15.0605 104.381 15.526 104.009 15.8125C103.644 16.099 103.207 16.2422 102.698 16.2422C102.176 16.2422 101.728 16.099 101.356 15.8125C100.99 15.526 100.808 15.0605 100.808 14.416Z" fill="#69306D"/>
</svg>
