<svg width="25" height="25" viewBox="0 0 25 25" fill="none" xmlns="http://www.w3.org/2000/svg">
<path d="M12.4999 12.5C14.8011 12.5 16.6666 10.6345 16.6666 8.33332C16.6666 6.03214 14.8011 4.16666 12.4999 4.16666C10.1987 4.16666 8.33325 6.03214 8.33325 8.33332C8.33325 10.6345 10.1987 12.5 12.4999 12.5Z" fill="#69306D"/>
<path d="M20.8334 19.7917V20.8333C20.8334 21.1096 20.7237 21.3745 20.5283 21.5699C20.333 21.7652 20.068 21.875 19.7917 21.875H5.20841C4.93215 21.875 4.6672 21.7652 4.47185 21.5699C4.27649 21.3745 4.16675 21.1096 4.16675 20.8333V19.7917C4.16675 18.1341 4.82523 16.5443 5.99733 15.3722C7.16943 14.2001 8.75914 13.5417 10.4167 13.5417H14.5834C16.241 13.5417 17.8307 14.2001 19.0028 15.3722C20.1749 16.5443 20.8334 18.1341 20.8334 19.7917Z" fill="#69306D"/>
</svg>
