<svg xmlns="http://www.w3.org/2000/svg" viewBox="0 0 220 60" width="140" height="38" role="img" aria-labelledby="geolabTitle">
  <title id="geolabTitle">GeoLab</title>
  <rect x="1" y="1" width="218" height="58" rx="10" fill="#ffffff" stroke="#7c3aed" stroke-width="2"/>
  <circle cx="32" cy="30" r="14" fill="#7c3aed"/>
  <path d="M26 30c0-4.5 3.8-7.5 7-7.5 2 0 3.6.7 4.8 1.8l-2.2 2.4c-.7-.6-1.6-1-2.6-1-2.4 0-4.3 2-4.3 4.3s1.9 4.3 4.3 4.3c1.9 0 3.2-1 3.7-2.4h-3.9V29h7.1c.1.5.1.9.1 1.4 0 4.6-3.1 7.9-7.3 7.9-4.3 0-7.7-3.3-7.7-7.8 0-.2 0-.3 0-.5z" fill="#ffffff" transform="translate(0 -1)"/>
  <text x="55" y="38" font-family="Arial, Helvetica, sans-serif" font-size="24" font-weight="700" fill="#1a1a1a">Geo<tspan fill="#7c3aed">Lab</tspan></text>
</svg>
